<svg width="370" height="250" viewBox="0 0 370 250" fill="none" xmlns="http://www.w3.org/2000/svg">
  
  

  
  <ellipse cx="112" cy="214" rx="50" ry="8" fill="#3C3223" opacity="0.08"></ellipse>
  <ellipse cx="286" cy="216" rx="46" ry="7" fill="#3C3223" opacity="0.07"></ellipse>

  
  <path class="pv-tw a" transform="translate(200 54) scale(0.7)" d="M0 -12 C1 -3 3 -1 12 0 C3 1 1 3 0 12 C-1 3 -3 1 -12 0 C-3 -1 -1 -3 0 -12 Z" fill="#C24A82"></path>
  <path class="pv-tw b" transform="translate(338 120) scale(0.55)" d="M0 -12 C1 -3 3 -1 12 0 C3 1 1 3 0 12 C-1 3 -3 1 -12 0 C-3 -1 -1 -3 0 -12 Z" fill="#B12E6A"></path>

  
  <g class="pv-provi" transform="translate(2 4)">
    <path d="M110 82 C110 58 110 44 123 40 C134 36 141 45 139 54" stroke="#B12E6A" stroke-width="8.5" stroke-linecap="round"></path>
    <path d="M110 84 L168 165 Q173 173 164 173 L56 173 Q47 173 52 165 Z" fill="#FFFFFF" stroke="#B12E6A" stroke-width="7" stroke-linejoin="round"></path>
    <ellipse cx="86" cy="150" rx="9" ry="6" fill="#F6DDE8"></ellipse>
    <ellipse cx="134" cy="150" rx="9" ry="6" fill="#F6DDE8"></ellipse>
    <circle cx="97" cy="140" r="5.5" fill="#232220"></circle>
    <circle cx="123" cy="140" r="5.5" fill="#232220"></circle>
    <path d="M101 151 Q110 159 119 151" stroke="#232220" stroke-width="4" stroke-linecap="round"></path>
  </g>

  
  <g class="pv-case">
    <path d="M270 108 V96 a16 16 0 0 1 32 0 V108" fill="none" stroke="#B12E6A" stroke-width="7" stroke-linecap="round"></path>
    <rect x="242" y="108" width="86" height="86" rx="18" fill="#FFFFFF" stroke="#B12E6A" stroke-width="7"></rect>
    <line x1="242" y1="148" x2="328" y2="148" stroke="#B12E6A" stroke-width="6"></line>
    <rect x="277" y="140" width="16" height="16" rx="4" fill="#F6DDE8" stroke="#B12E6A" stroke-width="4"></rect>
    <path d="M262 113 H278" stroke="#B12E6A" stroke-width="5" stroke-linecap="round"></path>
    <path d="M292 113 H308" stroke="#B12E6A" stroke-width="5" stroke-linecap="round"></path>
  </g>
</svg>