<svg width="120" height="140" viewBox="0 0 120 140" fill="none" xmlns="http://www.w3.org/2000/svg">
  
  <path transform="translate(98 26) scale(0.5)" d="M0 -12 C1 -3 3 -1 12 0 C3 1 1 3 0 12 C-1 3 -3 1 -12 0 C-3 -1 -1 -3 0 -12 Z" fill="#C24A82"></path>
  <path d="M44 36 V26 a16 16 0 0 1 32 0 V36" fill="none" stroke="#B12E6A" stroke-width="7" stroke-linecap="round"></path>
  <rect x="22" y="36" width="76" height="84" rx="16" fill="#FFFFFF" stroke="#B12E6A" stroke-width="7"></rect>
  <line x1="22" y1="74" x2="98" y2="74" stroke="#B12E6A" stroke-width="6"></line>
  <rect x="52" y="66" width="16" height="16" rx="4" fill="#F6DDE8" stroke="#B12E6A" stroke-width="4"></rect>
  <path d="M36 120 V128" stroke="#B12E6A" stroke-width="7" stroke-linecap="round"></path>
  <path d="M84 120 V128" stroke="#B12E6A" stroke-width="7" stroke-linecap="round"></path>
</svg>